<mxfile host="65bd71144e">
    <diagram id="lpPkFKzgFxVW_7bkYr9m" name="ページ1">
        <mxGraphModel dx="267" dy="333" grid="1" gridSize="10" guides="1" tooltips="1" connect="1" arrows="1" fold="1" page="1" pageScale="1" pageWidth="827" pageHeight="1169" math="0" shadow="0">
            <root>
                <mxCell id="0"/>
                <mxCell id="1" parent="0"/>
                <mxCell id="2" value="" style="endArrow=diamondThin;endFill=0;endSize=24;html=1;entryX=0.5;entryY=1;entryDx=0;entryDy=0;exitX=0.5;exitY=0;exitDx=0;exitDy=0;" edge="1" parent="1" source="4" target="3">
                    <mxGeometry width="160" relative="1" as="geometry">
                        <mxPoint x="250" y="150" as="sourcePoint"/>
                        <mxPoint x="280" y="240" as="targetPoint"/>
                    </mxGeometry>
                </mxCell>
                <mxCell id="3" value="RoboDog" style="html=1;whiteSpace=wrap;" vertex="1" parent="1">
                    <mxGeometry x="260" y="50" width="70" height="30" as="geometry"/>
                </mxCell>
                <mxCell id="4" value="名前" style="html=1;whiteSpace=wrap;" vertex="1" parent="1">
                    <mxGeometry x="240" y="220" width="75" height="30" as="geometry"/>
                </mxCell>
                <mxCell id="5" value="時刻" style="html=1;whiteSpace=wrap;" vertex="1" parent="1">
                    <mxGeometry x="130" y="220" width="80" height="30" as="geometry"/>
                </mxCell>
                <mxCell id="6" value="挨拶" style="html=1;whiteSpace=wrap;" vertex="1" parent="1">
                    <mxGeometry x="10" y="220" width="90" height="30" as="geometry"/>
                </mxCell>
                <mxCell id="7" value="" style="endArrow=diamondThin;endFill=0;endSize=24;html=1;entryX=0.25;entryY=1;entryDx=0;entryDy=0;exitX=0.5;exitY=0;exitDx=0;exitDy=0;" edge="1" parent="1" source="5" target="3">
                    <mxGeometry width="160" relative="1" as="geometry">
                        <mxPoint x="190" y="170" as="sourcePoint"/>
                        <mxPoint x="289" y="230" as="targetPoint"/>
                    </mxGeometry>
                </mxCell>
                <mxCell id="8" value="" style="endArrow=diamondThin;endFill=0;endSize=24;html=1;exitX=0.5;exitY=0;exitDx=0;exitDy=0;entryX=0;entryY=1;entryDx=0;entryDy=0;" edge="1" parent="1" source="6" target="3">
                    <mxGeometry width="160" relative="1" as="geometry">
                        <mxPoint x="185" y="150" as="sourcePoint"/>
                        <mxPoint x="60" y="170" as="targetPoint"/>
                    </mxGeometry>
                </mxCell>
                <mxCell id="10" value="足し算" style="html=1;whiteSpace=wrap;" vertex="1" parent="1">
                    <mxGeometry x="340" y="220" width="80" height="30" as="geometry"/>
                </mxCell>
                <mxCell id="11" value="二つの整数" style="html=1;whiteSpace=wrap;" vertex="1" parent="1">
                    <mxGeometry x="450" y="220" width="90" height="30" as="geometry"/>
                </mxCell>
                <mxCell id="12" value="" style="endArrow=diamondThin;endFill=0;endSize=24;html=1;exitX=0.5;exitY=0;exitDx=0;exitDy=0;entryX=0.832;entryY=1.098;entryDx=0;entryDy=0;entryPerimeter=0;" edge="1" parent="1" source="10" target="3">
                    <mxGeometry width="160" relative="1" as="geometry">
                        <mxPoint x="240" y="220" as="sourcePoint"/>
                        <mxPoint x="190" y="132" as="targetPoint"/>
                    </mxGeometry>
                </mxCell>
                <mxCell id="13" value="" style="endArrow=diamondThin;endFill=0;endSize=24;html=1;exitX=0.5;exitY=0;exitDx=0;exitDy=0;entryX=0.941;entryY=1.035;entryDx=0;entryDy=0;entryPerimeter=0;" edge="1" parent="1" source="11" target="3">
                    <mxGeometry width="160" relative="1" as="geometry">
                        <mxPoint x="505.37" y="200.56999999999994" as="sourcePoint"/>
                        <mxPoint x="220" y="110" as="targetPoint"/>
                    </mxGeometry>
                </mxCell>
            </root>
        </mxGraphModel>
    </diagram>
</mxfile>